<svg width="1024" height="1024" viewBox="0 0 1024 1024" fill="none" xmlns="http://www.w3.org/2000/svg">
<rect width="1024" height="1024" fill="#202020"/>
<mask id="mask0_1_2" style="mask-type:alpha" maskUnits="userSpaceOnUse" x="112" y="112" width="800" height="800">
<rect x="112" y="112" width="800" height="800" fill="#D9D9D9"/>
</mask>
<g mask="url(#mask0_1_2)">
<path d="M319.2 797.067L353.333 660.533H216.8L233.867 592.267H370.4L404.533 455.733H268L285.067 387.467H421.6L455.733 250.933H524L489.867 387.467H626.4L660.533 250.933H728.8L694.667 387.467H831.2L814.133 455.733H677.6L643.467 592.267H780L762.933 660.533H626.4L592.267 797.067H524L558.133 660.533H421.6L387.467 797.067H319.2ZM438.667 592.267H575.2L609.333 455.733H472.8L438.667 592.267Z" fill="#F0F0F0"/>
</g>
</svg>
